<svg xmlns="http://www.w3.org/2000/svg" version="1.1" xmlns:xlink="http://www.w3.org/1999/xlink" xmlns:svgjs="http://svgjs.dev/svgjs" viewBox="0 0 800 800" preserveAspectRatio="xMidYMid slice"><defs><pattern id="pppixelate-pattern" width="20" height="20" patternUnits="userSpaceOnUse" patternTransform="translate(-3 146) scale(38.6) rotate(0)" shape-rendering="crispEdges">
    <rect width="1" height="1" x="1" y="4" fill="hsl(0, 0%, 0%)"></rect><rect width="1" height="1" x="2" y="4" fill="hsl(0, 0%, 0%)"></rect><rect width="1" height="1" x="3" y="4" fill="hsl(0, 0%, 0%)"></rect><rect width="1" height="1" x="4" y="4" fill="hsl(0, 0%, 0%)"></rect><rect width="1" height="1" x="5" y="4" fill="hsl(0, 0%, 0%)"></rect><rect width="1" height="1" x="7" y="4" fill="hsl(0, 0%, 0%)"></rect><rect width="1" height="1" x="11" y="4" fill="hsl(0, 0%, 0%)"></rect><rect width="1" height="1" x="13" y="4" fill="hsl(0, 0%, 0%)"></rect><rect width="1" height="1" x="14" y="4" fill="hsl(0, 0%, 0%)"></rect><rect width="1" height="1" x="18" y="4" fill="hsl(0, 0%, 0%)"></rect><rect width="1" height="1" x="19" y="4" fill="hsl(0, 0%, 0%)"></rect><rect width="1" height="1" x="3" y="5" fill="hsl(0, 0%, 0%)"></rect><rect width="1" height="1" x="7" y="5" fill="hsl(0, 0%, 0%)"></rect><rect width="1" height="1" x="11" y="5" fill="hsl(0, 0%, 0%)"></rect><rect width="1" height="1" x="13" y="5" fill="hsl(0, 0%, 0%)"></rect><rect width="1" height="1" x="15" y="5" fill="hsl(0, 0%, 0%)"></rect><rect width="1" height="1" x="17" y="5" fill="hsl(0, 0%, 0%)"></rect><rect width="1" height="1" x="19" y="5" fill="hsl(0, 0%, 0%)"></rect><rect width="1" height="1" x="3" y="6" fill="hsl(0, 0%, 0%)"></rect><rect width="1" height="1" x="7" y="6" fill="hsl(0, 0%, 0%)"></rect><rect width="1" height="1" x="8" y="6" fill="hsl(0, 0%, 0%)"></rect><rect width="1" height="1" x="9" y="6" fill="hsl(0, 0%, 0%)"></rect><rect width="1" height="1" x="10" y="6" fill="hsl(0, 0%, 0%)"></rect><rect width="1" height="1" x="11" y="6" fill="hsl(0, 0%, 0%)"></rect><rect width="1" height="1" x="13" y="6" fill="hsl(0, 0%, 0%)"></rect><rect width="1" height="1" x="16" y="6" fill="hsl(0, 0%, 0%)"></rect><rect width="1" height="1" x="19" y="6" fill="hsl(0, 0%, 0%)"></rect><rect width="1" height="1" x="3" y="7" fill="hsl(0, 0%, 0%)"></rect><rect width="1" height="1" x="7" y="7" fill="hsl(0, 0%, 0%)"></rect><rect width="1" height="1" x="11" y="7" fill="hsl(0, 0%, 0%)"></rect><rect width="1" height="1" x="13" y="7" fill="hsl(0, 0%, 0%)"></rect><rect width="1" height="1" x="19" y="7" fill="hsl(0, 0%, 0%)"></rect><rect width="1" height="1" x="3" y="8" fill="hsl(0, 0%, 0%)"></rect><rect width="1" height="1" x="7" y="8" fill="hsl(0, 0%, 0%)"></rect><rect width="1" height="1" x="11" y="8" fill="hsl(0, 0%, 0%)"></rect><rect width="1" height="1" x="13" y="8" fill="hsl(0, 0%, 0%)"></rect><rect width="1" height="1" x="19" y="8" fill="hsl(0, 0%, 0%)"></rect>
  </pattern></defs><rect width="100%" height="100%" fill="url(#pppixelate-pattern)"></rect></svg>